<?xml version="1.0" standalone="no"?>
<!DOCTYPE svg PUBLIC "-//W3C//DTD SVG 20010904//EN"
 "http://www.w3.org/TR/2001/REC-SVG-20010904/DTD/svg10.dtd">
<svg version="1.0" xmlns="http://www.w3.org/2000/svg"
 width="260.000000pt" height="260.000000pt" viewBox="0 0 260.000000 260.000000"
 preserveAspectRatio="xMidYMid meet">
<metadata>
Created by potrace 1.14, written by Peter Selinger 2001-2017
</metadata>
<g transform="translate(0.000000,260.000000) scale(0.100000,-0.100000)"
fill="#000000" stroke="none">
<path d="M50 1300 l0 -1250 1248 2 1247 3 3 863 2 862 -30 0 -30 0 0 -683 c0
-376 -3 -752 -7 -835 l-6 -152 -1173 0 c-645 0 -1179 3 -1188 6 -14 6 -16 119
-16 1184 0 1065 2 1178 16 1184 9 3 370 6 802 6 433 0 793 4 800 9 8 5 12 17
10 27 -3 18 -30 19 -841 22 l-837 2 0 -1250z"/>
<path d="M1830 2520 l0 -30 328 -2 327 -3 3 -290 c2 -257 4 -291 19 -302 40
-30 43 -8 43 333 l0 324 -360 0 -360 0 0 -30z"/>
<path d="M595 1614 c-60 -9 -90 -25 -148 -79 -54 -51 -87 -134 -87 -224 0 -71
35 -182 69 -217 65 -67 113 -87 213 -87 70 0 90 5 139 29 39 19 64 40 76 62
10 17 21 32 25 32 13 0 9 95 -4 108 -7 7 -24 12 -38 12 -22 0 -32 -11 -60 -59
-43 -77 -77 -96 -155 -88 -48 5 -62 11 -86 38 -30 34 -59 116 -59 170 0 38 30
139 42 139 4 0 8 6 8 13 0 7 13 23 30 35 22 17 43 22 87 22 49 0 63 -5 91 -29
17 -16 32 -33 32 -37 0 -17 51 -64 70 -64 39 0 50 11 50 51 0 37 -17 76 -47
107 -41 43 -168 77 -248 66z"/>
<path d="M1033 1610 c-31 -13 -35 -56 -31 -328 4 -296 -15 -272 217 -272 154
0 169 2 189 20 26 25 28 43 6 64 -12 13 -41 16 -150 16 l-134 0 0 212 c0 140
-4 224 -12 247 -7 20 -12 37 -13 38 -1 8 -55 10 -72 3z"/>
<path d="M1542 1602 c-22 -19 -22 -23 -22 -292 0 -269 0 -273 22 -292 25 -22
64 -17 85 10 18 24 18 540 0 564 -21 27 -60 32 -85 10z"/>
<path d="M1807 1597 l-27 -11 2 -280 3 -280 23 -12 c33 -16 65 -7 80 24 7 15
12 66 12 119 l0 93 90 0 c141 0 208 36 232 124 9 36 9 59 0 102 -13 66 -53
107 -119 123 -54 14 -259 12 -296 -2z m248 -93 c58 -27 69 -94 23 -138 -21
-20 -134 -43 -161 -33 -14 5 -17 21 -17 97 l0 90 61 0 c35 0 75 -7 94 -16z"/>
</g>
</svg>
