<svg width="36" height="36" viewBox="0 0 36 36" fill="none" xmlns="http://www.w3.org/2000/svg">
<g clip-path="url(#clip0_43_280)">
<path d="M9 26.9999C9 27.8249 9.675 28.4999 10.5 28.4999H12V33.7499C12 34.9949 13.005 35.9999 14.25 35.9999C15.495 35.9999 16.5 34.9949 16.5 33.7499V28.4999H19.5V33.7499C19.5 34.9949 20.505 35.9999 21.75 35.9999C22.995 35.9999 24 34.9949 24 33.7499V28.4999H25.5C26.325 28.4999 27 27.8249 27 26.9999V11.9999H9V26.9999ZM5.25 11.9999C4.005 11.9999 3 13.0049 3 14.2499V24.7499C3 25.9949 4.005 26.9999 5.25 26.9999C6.495 26.9999 7.5 25.9949 7.5 24.7499V14.2499C7.5 13.0049 6.495 11.9999 5.25 11.9999ZM30.75 11.9999C29.505 11.9999 28.5 13.0049 28.5 14.2499V24.7499C28.5 25.9949 29.505 26.9999 30.75 26.9999C31.995 26.9999 33 25.9949 33 24.7499V14.2499C33 13.0049 31.995 11.9999 30.75 11.9999ZM23.295 3.23987L25.2525 1.28237C25.3219 1.21293 25.377 1.1305 25.4146 1.03978C25.4522 0.949052 25.4715 0.851816 25.4715 0.753618C25.4715 0.65542 25.4522 0.558183 25.4146 0.46746C25.377 0.376737 25.3219 0.294304 25.2525 0.224868C25.1831 0.155431 25.1006 0.100351 25.0099 0.0627723C24.9192 0.0251936 24.8219 0.00585205 24.7238 0.00585205C24.6256 0.00585205 24.5283 0.0251936 24.4376 0.0627723C24.3469 0.100351 24.2644 0.155431 24.195 0.224868L21.975 2.43737C20.7401 1.82235 19.3796 1.50148 18 1.49987C16.56 1.49987 15.21 1.84487 14.0025 2.44487L11.775 0.217367C11.6348 0.0771343 11.4446 -0.00164795 11.2463 -0.00164795C11.0479 -0.00164795 10.8577 0.0771343 10.7175 0.217367C10.5773 0.357601 10.4985 0.547798 10.4985 0.746118C10.4985 0.944437 10.5773 1.13463 10.7175 1.27487L12.6825 3.23987C10.455 4.88237 9 7.52237 9 10.4999H27C27 7.51487 25.5375 4.87487 23.295 3.23987ZM15 7.49987H13.5V5.99987H15V7.49987ZM22.5 7.49987H21V5.99987H22.5V7.49987Z" fill="black"/>
</g>
<defs>
<clipPath id="clip0_43_280">
<rect width="36" height="36" fill="white"/>
</clipPath>
</defs>
</svg>
