<svg width="65" height="65" viewBox="0 0 60 60" fill="none" xmlns="http://www.w3.org/2000/svg">
<g clip-path="url(#clip0_204_2)">
<path fill-rule="evenodd" clip-rule="evenodd" d="M28.7058 -0.0449219C30.1233 -0.0449219 31.5409 -0.0449219 32.9585 -0.0449219C35.9466 0.197633 38.8588 0.826375 41.695 1.84131C41.8112 1.87273 41.8421 1.93261 41.7874 2.02095C33.2564 -0.402967 25.1978 0.629967 17.6118 5.11975C8.97619 10.7883 4.47697 18.7224 4.1141 28.9221C4.48282 39.2531 9.0745 47.2471 17.8891 52.9042C25.0622 57.0595 32.7048 58.1374 40.8167 56.1377C49.1173 53.7456 55.2498 48.8205 59.2143 41.3623C59.2607 41.2706 59.3222 41.2556 59.3992 41.3174C55.6302 49.7396 49.2819 55.4582 40.3545 58.473C37.4797 59.3377 34.552 59.8317 31.5717 59.9551C31.017 59.9551 30.4623 59.9551 29.9076 59.9551C18.7724 59.2859 10.2208 54.4057 4.25278 45.3144C1.78607 41.2239 0.353096 36.8227 -0.0461426 32.1108C-0.0461426 30.6437 -0.0461426 29.1766 -0.0461426 27.7096C1.11319 17.1123 6.38283 9.10328 15.7628 3.68262C19.8128 1.53731 24.1272 0.294793 28.7058 -0.0449219Z" fill="black"/>
<path fill-rule="evenodd" clip-rule="evenodd" d="M43.6827 22.3204C46.9108 22.4926 48.6982 24.1393 49.0448 27.2605C48.9121 29.4224 47.8335 30.9343 45.809 31.7964C43.1565 32.5544 41.0763 31.8209 39.5687 29.5958C38.3804 26.8926 39.0121 24.692 41.4639 22.994C42.1716 22.6299 42.9112 22.4053 43.6827 22.3204ZM43.2204 22.9491C45.9129 22.7809 47.6232 23.9485 48.3514 26.4521C48.599 28.9952 47.4742 30.6569 44.977 31.4371C42.2663 31.7657 40.4943 30.6729 39.6611 28.1587C39.3535 25.45 40.54 23.7135 43.2204 22.9491Z" fill="black"/>
<path fill-rule="evenodd" clip-rule="evenodd" d="M59.9537 22.4102C59.9537 22.5599 59.9537 22.7095 59.9537 22.8593C57.057 22.8593 54.1602 22.8593 51.2634 22.8593C51.2634 22.7095 51.2634 22.5599 51.2634 22.4102C54.1602 22.4102 57.057 22.4102 59.9537 22.4102Z" fill="black"/>
<path fill-rule="evenodd" clip-rule="evenodd" d="M24.3606 22.5898C24.9644 22.5439 25.5499 22.6188 26.1171 22.8144C26.6044 23.0547 26.589 23.2792 26.0709 23.488C25.4889 23.1965 24.888 23.1516 24.2681 23.3533C23.3912 24.0502 23.4219 24.7089 24.3606 25.3294C25.4606 25.4618 26.5083 25.7611 27.5039 26.2276C28.2847 26.6494 28.7623 27.2931 28.9369 28.1587C29.1893 30.2567 28.2494 31.5292 26.1171 31.9761C24.9168 32.2457 23.7766 32.096 22.6965 31.527C22.1426 31.3099 22.1117 31.0553 22.604 30.7635C23.8179 31.5105 25.1122 31.6753 26.4869 31.2575C28.0904 30.5816 28.6296 29.4289 28.1048 27.7994C27.6173 27.0313 26.9239 26.5373 26.0247 26.3174C25.3415 26.2237 24.6635 26.104 23.9908 25.9581C22.9271 25.4326 22.6343 24.6391 23.1125 23.5779C23.4209 23.108 23.837 22.7786 24.3606 22.5898Z" fill="black"/>
<path fill-rule="evenodd" clip-rule="evenodd" d="M31.3868 22.5C32.9354 22.4621 34.4761 22.5369 36.0093 22.7245C36.9321 22.9174 37.3944 23.4713 37.3961 24.3862C37.357 25.2174 36.9255 25.7413 36.1018 25.9581C34.5037 26.0863 32.9012 26.1312 31.2944 26.0928C31.2944 28.0987 31.2944 30.1048 31.2944 32.1108C31.0787 32.1108 30.8629 32.1108 30.6472 32.1108C30.6472 29.9252 30.6472 27.7395 30.6472 25.5539C32.3424 25.5689 34.0374 25.5539 35.732 25.509C36.3879 25.3057 36.7577 24.8716 36.8414 24.2066C36.6507 23.6477 36.2501 23.3333 35.6395 23.2634C35.0711 23.1978 34.501 23.1529 33.9292 23.1287C32.8363 23.1997 31.7424 23.2296 30.6472 23.2185C30.6472 23.009 30.6472 22.7993 30.6472 22.5898C30.9139 22.6173 31.1605 22.5874 31.3868 22.5Z" fill="black"/>
<path fill-rule="evenodd" clip-rule="evenodd" d="M59.9537 24.1168C59.9537 24.2964 59.9537 24.476 59.9537 24.6557C57.057 24.6557 54.1602 24.6557 51.2634 24.6557C51.2634 24.476 51.2634 24.2964 51.2634 24.1168C54.1602 24.1168 57.057 24.1168 59.9537 24.1168Z" fill="black"/>
<path fill-rule="evenodd" clip-rule="evenodd" d="M15.7627 26.3623C15.9168 26.3623 16.0709 26.3623 16.225 26.3623C16.225 26.9611 16.225 27.5599 16.225 28.1587C16.5948 28.1587 16.9646 28.1587 17.3344 28.1587C17.3344 28.2784 17.3344 28.3983 17.3344 28.518C16.9646 28.518 16.5948 28.518 16.225 28.518C16.2096 29.1774 16.225 29.836 16.2712 30.494C16.6096 31.325 17.2414 31.7142 18.1664 31.6617C18.1664 31.8114 18.1664 31.9611 18.1664 32.1108C17.0826 32.116 16.3276 31.637 15.9014 30.6737C15.7684 29.2417 15.7222 27.8046 15.7627 26.3623Z" fill="black"/>
<path fill-rule="evenodd" clip-rule="evenodd" d="M55.2388 26.6317C55.4853 26.6317 55.7318 26.6317 55.9784 26.6317C55.9784 28.458 55.9784 30.2844 55.9784 32.1108C55.7318 32.1108 55.4853 32.1108 55.2388 32.1108C55.2388 30.2844 55.2388 28.458 55.2388 26.6317Z" fill="black"/>
<path fill-rule="evenodd" clip-rule="evenodd" d="M6.98003 28.2485C7.84289 28.2485 8.70576 28.2485 9.56863 28.2485C9.56863 29.5359 9.56863 30.8234 9.56863 32.1107C9.44539 32.1107 9.32206 32.1107 9.19883 32.1107C9.19883 30.973 9.19883 29.8353 9.19883 28.6976C8.31176 28.5448 7.4489 28.6197 6.61023 28.9221C5.96336 29.563 5.88631 30.2666 6.3791 31.0329C6.76705 31.513 7.27553 31.7225 7.90453 31.6616C7.90453 31.7814 7.90453 31.9012 7.90453 32.0209C6.13501 31.9642 5.41081 31.096 5.73195 29.4161C5.95775 28.8222 6.37378 28.4331 6.98003 28.2485Z" fill="black"/>
<path fill-rule="evenodd" clip-rule="evenodd" d="M10.5854 28.2485C11.4796 28.2336 12.3733 28.2485 13.2665 28.2934C14.2602 28.4804 14.7995 29.0643 14.8844 30.0449C14.9306 30.7328 14.9459 31.4215 14.9306 32.1108C14.7765 32.1108 14.6225 32.1108 14.4683 32.1108C14.4837 31.3916 14.4683 30.673 14.4221 29.9551C14.3213 29.2951 13.9361 28.8909 13.2665 28.7425C12.4967 28.6028 11.7262 28.5878 10.9552 28.6976C10.9552 29.8354 10.9552 30.973 10.9552 32.1108C10.832 32.1108 10.7087 32.1108 10.5854 32.1108C10.5854 30.8234 10.5854 29.5359 10.5854 28.2485Z" fill="black"/>
<path fill-rule="evenodd" clip-rule="evenodd" d="M19.0908 28.2485C19.2449 28.2485 19.399 28.2485 19.5531 28.2485C19.5531 29.5359 19.5531 30.8234 19.5531 32.1107C19.399 32.1107 19.2449 32.1107 19.0908 32.1107C19.0908 30.8234 19.0908 29.5359 19.0908 28.2485Z" fill="black"/>
</g>
<defs>
<clipPath id="clip0_204_2">
<rect width="60" height="60" fill="white"/>
</clipPath>
</defs>
</svg>
