<svg width="18" height="18" viewBox="0 0 18 18" fill="none" xmlns="http://www.w3.org/2000/svg">
<path d="M15.5593 2.49638C15.2664 2.20348 14.7915 2.20348 14.4986 2.49638L9.02783 7.96717L3.55706 2.49638C3.26417 2.20348 2.7893 2.20348 2.49641 2.49638C2.20351 2.78927 2.20351 3.26414 2.49641 3.55703L7.96718 9.02782L2.49642 14.4985C2.20352 14.7915 2.20352 15.2663 2.49642 15.5593C2.78931 15.8521 3.26419 15.8521 3.55708 15.5593L9.02783 10.0885L14.4986 15.5593C14.7915 15.8521 15.2664 15.8521 15.5593 15.5593C15.8522 15.2663 15.8522 14.7915 15.5593 14.4986L10.0885 9.02782L15.5593 3.55703C15.8522 3.26414 15.8522 2.78927 15.5593 2.49638Z" fill="white"/>
</svg>
