<svg width="36" height="37" viewBox="0 0 36 37" fill="none" xmlns="http://www.w3.org/2000/svg">
<path d="M18 0.234589C8.05957 0.234589 0 8.32641 0 18.3066C0 28.2866 8.05957 36.3786 18 36.3786C27.9404 36.3786 35.9998 28.2865 35.9998 18.3066C35.9998 8.32641 27.9404 0.234589 18 0.234589ZM27.5051 26.6036L26.0639 28.0509C25.8066 28.3089 25.0532 28.4699 25.029 28.4699C20.4696 28.5098 16.0796 26.7117 12.8541 23.473C9.61973 20.2238 7.82675 15.8006 7.8749 11.2075C7.8749 11.2054 8.03991 10.4706 8.29699 10.215L9.73814 8.76785C10.2655 8.23591 11.2786 7.99552 11.9882 8.2339L12.2914 8.33543C12.999 8.57358 13.7419 9.35908 13.9374 10.0828L14.6623 12.7542C14.8578 13.4799 14.5941 14.5125 14.0669 15.0419L13.1046 16.0082C14.0494 19.5199 16.7938 22.2758 20.292 23.2267L21.254 22.2601C21.7838 21.7282 22.8118 21.4637 23.5331 21.6597L26.1935 22.3901C26.9145 22.589 27.6967 23.3302 27.9338 24.0404L28.035 24.3492C28.27 25.0597 28.0324 26.0765 27.5051 26.6036Z" fill="#5EBF68"/>
</svg>
