<svg width="36" height="36" viewBox="0 0 36 36" fill="none" xmlns="http://www.w3.org/2000/svg">
<path d="M23.9236 35.814C22.8241 35.814 21.8446 35.442 20.9011 35.088C20.0926 34.7805 19.3306 34.4925 18.6076 34.4925C17.9656 34.4925 17.2336 34.767 16.4581 35.055C15.5206 35.4015 14.4586 35.799 13.3051 35.799C11.4091 35.799 9.70958 34.713 8.10158 32.4855C8.03408 32.391 1.48808 22.7775 4.66808 15.639C6.40958 11.73 8.91908 9.74551 12.1261 9.74551C13.8181 9.74551 15.3796 10.2765 16.6336 10.704C17.3356 10.9425 17.9986 11.1675 18.3481 11.1675C18.7606 11.1675 19.4236 10.926 20.1211 10.6665C21.2851 10.239 22.7371 9.70351 24.4021 9.70351C26.8156 9.70351 28.9996 10.818 31.0816 13.11C31.1518 13.1883 31.205 13.2803 31.2378 13.3802C31.2706 13.4802 31.2823 13.5858 31.2721 13.6905C31.2605 13.795 31.2275 13.8959 31.1751 13.987C31.1227 14.0781 31.052 14.1575 30.9676 14.22C28.7731 15.819 27.6601 17.6685 27.6601 19.719C27.6601 22.2585 28.9141 24.1245 31.8466 25.95C32.0009 26.0451 32.1153 26.1933 32.1683 26.3667C32.2213 26.5401 32.2093 26.7268 32.1346 26.892C29.3776 33.06 26.8456 35.814 23.9236 35.814ZM18.4186 9.31651C18.2386 9.31651 18.0571 9.30451 17.8786 9.28351C17.7016 9.26245 17.5381 9.17871 17.4176 9.04745C17.297 8.9162 17.2275 8.74611 17.2216 8.56801C17.0236 3.54901 21.2776 0.475509 24.4216 0.190509C24.6084 0.174599 24.7944 0.228517 24.9438 0.341838C25.0931 0.455159 25.1951 0.619831 25.2301 0.804009C25.5766 2.73601 24.9286 4.86001 23.4481 6.63001C22.0411 8.31301 20.1601 9.31651 18.4186 9.31651Z" fill="black"/>
</svg>
