<svg width="36" height="36" viewBox="0 0 36 36" fill="none" xmlns="http://www.w3.org/2000/svg">
<g clip-path="url(#clip0_46_391)">
<path d="M17.9999 36C27.6986 36 35.5609 27.9411 35.5609 18C35.5609 8.05887 27.6986 0 17.9999 0C8.30128 0 0.438965 8.05887 0.438965 18C0.438965 27.9411 8.30128 36 17.9999 36Z" fill="url(#paint0_linear_46_391)"/>
<path fill-rule="evenodd" clip-rule="evenodd" d="M29.4334 25.8556C29.1754 26.0109 28.8749 26.1 28.5541 26.1H7.44581C7.12502 26.1 6.82452 26.0109 6.56656 25.8556L13.6097 18.6364L15.3481 20.4182C16.0198 21.1068 16.9128 21.45 18 21.45C19.0871 21.45 19.9801 21.1068 20.6519 20.4182L22.3902 18.6364L29.4334 25.8556ZM30.0542 25.2192L23.0111 18L30.0542 10.7808C30.2058 11.0452 30.2926 11.3532 30.2926 11.682V24.318C30.2926 24.6468 30.2058 24.9548 30.0542 25.2192ZM5.94568 25.2192C5.79416 24.9548 5.70728 24.6468 5.70728 24.318V11.682C5.70728 11.3532 5.79416 11.0452 5.94568 10.7808L12.9888 18L5.94568 25.2192ZM29.4334 10.1444L20.031 19.7818C19.532 20.2932 18.864 20.55 18 20.55C17.1359 20.55 16.4679 20.2932 15.9689 19.7818L6.56656 10.1444C6.82452 9.98906 7.12502 9.9 7.44581 9.9H28.5541C28.8749 9.9 29.1754 9.98906 29.4334 10.1444Z" fill="white"/>
</g>
<defs>
<linearGradient id="paint0_linear_46_391" x1="1756.54" y1="0" x2="1756.54" y2="3600" gradientUnits="userSpaceOnUse">
<stop stop-color="#1D6FF2"/>
<stop offset="1" stop-color="#1AC8FC"/>
</linearGradient>
<clipPath id="clip0_46_391">
<rect width="36" height="36" fill="white"/>
</clipPath>
</defs>
</svg>
