<svg width="36" height="36" viewBox="0 0 36 36" fill="none" xmlns="http://www.w3.org/2000/svg">
<g clip-path="url(#clip0_46_385)">
<path d="M36 18C36 8.05887 27.9411 0 18 0C8.05887 0 0 8.05887 0 18C0 27.9411 8.05887 36 18 36C27.9411 36 36 27.9411 36 18Z" fill="#419FD9"/>
<path d="M36 18C36 8.05887 27.9411 0 18 0C8.05887 0 0 8.05887 0 18C0 27.9411 8.05887 36 18 36C27.9411 36 36 27.9411 36 18Z" fill="url(#paint0_linear_46_385)"/>
<path d="M8.09055 17.6032C13.325 15.2747 16.8154 13.7396 18.562 12.9979C23.5484 10.8802 24.5846 10.5124 25.26 10.5001C25.4085 10.4976 25.7406 10.5352 25.9558 10.7134C26.1374 10.8639 26.1874 11.0672 26.2113 11.2099C26.2352 11.3526 26.265 11.6776 26.2413 11.9316C25.9711 14.8305 24.8019 21.8654 24.207 25.1123C23.9553 26.4861 23.4597 26.9468 22.9799 26.9918C21.9372 27.0898 21.1453 26.2882 20.1355 25.6123C18.5551 24.5546 17.6623 23.8961 16.1283 22.864C14.3555 21.6712 15.5047 21.0157 16.5151 19.9442C16.7794 19.6639 21.3737 15.3971 21.4627 15.0101C21.4738 14.9617 21.4841 14.7812 21.3791 14.686C21.2741 14.5907 21.1192 14.6233 21.0073 14.6491C20.8489 14.6859 18.3242 16.3897 13.4335 19.7605C12.7168 20.2629 12.0678 20.5076 11.4862 20.4948C10.8451 20.4807 9.61192 20.1247 8.69512 19.8205C7.57065 19.4472 6.6769 19.25 6.75472 18.6161C6.79526 18.286 7.24052 17.9483 8.09055 17.6032Z" fill="white"/>
</g>
<defs>
<linearGradient id="paint0_linear_46_385" x1="18" y1="0" x2="18" y2="35.733" gradientUnits="userSpaceOnUse">
<stop stop-color="#2AABEE"/>
<stop offset="1" stop-color="#229ED9"/>
</linearGradient>
<clipPath id="clip0_46_385">
<rect width="36" height="36" fill="white"/>
</clipPath>
</defs>
</svg>
