<svg width="36" height="36" viewBox="0 0 36 36" fill="none" xmlns="http://www.w3.org/2000/svg">
<g clip-path="url(#clip0_46_378)">
<path d="M36 18C36 8.05887 27.9411 0 18 0C8.05887 0 0 8.05887 0 18C0 27.9411 8.05887 36 18 36C27.9411 36 36 27.9411 36 18Z" fill="#675DA9"/>
<path d="M26.8152 9.13838C26.2197 8.59103 23.8092 6.83837 18.4361 6.81436C18.4361 6.81436 12.1026 6.43022 9.01503 9.26325C7.29598 10.9823 6.69097 13.4936 6.62854 16.6148C6.56612 19.7311 6.48449 25.5749 12.117 27.1594H12.1218L12.117 29.5747C12.117 29.5747 12.0834 30.5542 12.7268 30.7511C13.5047 30.9912 13.9656 30.2469 14.7099 29.445C15.1181 29.0032 15.6798 28.3598 16.1072 27.8653C19.9582 28.187 22.9209 27.4475 23.257 27.3371C24.0349 27.0826 28.4382 26.5208 29.1536 20.6771C29.8931 14.6652 28.7934 10.8575 26.8152 9.13838ZM27.4682 20.2545C26.8631 25.133 23.2954 25.4404 22.6376 25.6517C22.3591 25.7429 19.7565 26.3912 16.4817 26.175C16.4817 26.175 14.0424 29.1185 13.2838 29.882C13.1637 30.002 13.0245 30.05 12.9333 30.026C12.8036 29.9924 12.7652 29.8388 12.77 29.6131C12.77 29.2866 12.7892 25.5941 12.7892 25.5941C12.7844 25.5941 12.7844 25.5941 12.7892 25.5941C8.02105 24.2735 8.29953 19.2989 8.3524 16.6964C8.4052 14.0939 8.89495 11.957 10.3499 10.5213C12.9573 8.15888 18.34 8.50935 18.34 8.50935C22.8825 8.52855 25.0577 9.89708 25.5619 10.3532C27.2377 11.7938 28.0924 15.227 27.4682 20.2545Z" fill="white"/>
<path d="M20.6497 16.7876C20.4913 16.7876 20.3568 16.6627 20.3472 16.4995C20.2944 15.4671 19.8094 14.9629 18.8203 14.9101C18.6522 14.9005 18.5225 14.7565 18.5321 14.5884C18.5417 14.4203 18.6858 14.2907 18.8539 14.3003C20.1599 14.3723 20.8898 15.1214 20.957 16.4659C20.9666 16.6339 20.837 16.778 20.6689 16.7828C20.6593 16.7876 20.6545 16.7876 20.6497 16.7876Z" fill="white"/>
<path d="M22.2055 17.3062H22.2007C22.0326 17.3014 21.8982 17.1622 21.903 16.9942C21.927 15.957 21.6293 15.1167 20.9954 14.4252C20.3664 13.7338 19.4973 13.3592 18.3497 13.2776C18.1816 13.2632 18.0568 13.1191 18.0712 12.9511C18.0856 12.783 18.2297 12.6582 18.3977 12.6726C19.6942 12.7686 20.717 13.2199 21.4468 14.017C22.1815 14.8189 22.5368 15.8225 22.5128 17.0086C22.508 17.1766 22.3688 17.3062 22.2055 17.3062Z" fill="white"/>
<path d="M23.7997 17.9305C23.6316 17.9305 23.4971 17.796 23.4971 17.6279C23.4827 15.7696 22.9497 14.3531 21.8645 13.292C20.7938 12.2452 19.4348 11.7121 17.8359 11.6977C17.6678 11.6977 17.5334 11.5585 17.5334 11.3905C17.5334 11.2224 17.6726 11.0879 17.8359 11.0879C19.5981 11.1023 21.0962 11.6929 22.2823 12.855C23.4731 14.017 24.083 15.6208 24.1022 17.6183C24.107 17.7912 23.9725 17.9305 23.7997 17.9305C23.8045 17.9305 23.8045 17.9305 23.7997 17.9305ZM18.8923 20.5473C18.8923 20.5473 19.3196 20.5858 19.5501 20.3024L19.9967 19.7407C20.2127 19.4621 20.7362 19.2845 21.2451 19.5678C21.5285 19.7262 22.0422 20.0432 22.3592 20.2784C22.7 20.5281 23.3915 21.1043 23.3963 21.1091C23.7276 21.3877 23.8045 21.7958 23.5788 22.2328C23.5788 22.2328 23.5788 22.2376 23.5788 22.2424C23.3483 22.6505 23.0362 23.0347 22.6472 23.3899C22.6424 23.3899 22.6424 23.3947 22.6376 23.3947C22.3159 23.6637 21.999 23.8173 21.6917 23.851C21.6533 23.8606 21.6101 23.8606 21.5525 23.8606C21.418 23.8606 21.2835 23.8414 21.1491 23.7981L21.1395 23.7837C20.6593 23.6493 19.8622 23.3132 18.5369 22.5785C17.6726 22.1031 16.9571 21.6181 16.3473 21.1331C16.0256 20.8786 15.6991 20.5954 15.363 20.2592C15.3533 20.2496 15.3389 20.2352 15.3293 20.2256C15.3197 20.216 15.3053 20.2016 15.2957 20.192C15.2861 20.1824 15.2717 20.168 15.2621 20.1584C15.2525 20.1488 15.2381 20.1343 15.2285 20.1248C14.8972 19.7887 14.6091 19.4621 14.3546 19.1404C13.8696 18.5354 13.3847 17.8151 12.9093 16.9508C12.1746 15.6207 11.8385 14.8237 11.7041 14.3483L11.6897 14.3386C11.6464 14.2043 11.6272 14.0698 11.6272 13.9353C11.6272 13.8777 11.6272 13.8345 11.6368 13.7961C11.6753 13.4839 11.8289 13.1718 12.093 12.8501C12.093 12.8453 12.0978 12.8453 12.0978 12.8405C12.4531 12.4468 12.8372 12.1394 13.2454 11.9089C13.2454 11.9089 13.2502 11.9089 13.255 11.9089C13.6871 11.6833 14.0953 11.7602 14.3786 12.0914C14.3786 12.0914 14.9597 12.7877 15.2093 13.1286C15.4446 13.4504 15.7615 13.9593 15.92 14.2426C16.2033 14.7516 16.0256 15.275 15.7471 15.4911L15.1853 15.9376C14.902 16.1681 14.9404 16.5955 14.9404 16.5955C14.9404 16.5955 15.7712 19.7551 18.8923 20.5473Z" fill="white"/>
</g>
<defs>
<clipPath id="clip0_46_378">
<rect width="36" height="36" fill="white"/>
</clipPath>
</defs>
</svg>
