<svg width="36" height="36" viewBox="0 0 36 36" fill="none" xmlns="http://www.w3.org/2000/svg">
<path fill-rule="evenodd" clip-rule="evenodd" d="M5.75003 17.75C5.75003 10.7084 11.4584 5 18.5 5C25.5416 5 31.25 10.7084 31.25 17.75C31.25 24.7916 25.5416 30.5 18.5 30.5C15.9917 30.5 13.6569 29.7773 11.687 28.5292C11.3204 28.2969 10.8711 28.2348 10.4553 28.3589L6.13654 29.6479L7.7626 25.8429C7.95479 25.3932 7.91569 24.8781 7.65781 24.4627C6.44855 22.514 5.75003 20.2159 5.75003 17.75ZM18.5 2C9.80155 2 2.75003 9.05152 2.75003 17.75C2.75003 20.5072 3.45974 23.1025 4.70698 25.3591L2.12071 31.4105C1.89207 31.9456 1.99342 32.5645 2.38073 32.9986C2.76805 33.4328 3.37148 33.6038 3.92899 33.4373L10.6781 31.4232C12.9837 32.7447 15.6556 33.5 18.5 33.5C27.1985 33.5 34.25 26.4485 34.25 17.75C34.25 9.05152 27.1985 2 18.5 2ZM21.9388 21.0236L19.9675 22.4121C19.0442 21.8862 18.0235 21.1521 16.9996 20.1283C15.9352 19.0639 15.146 17.965 14.5642 16.957L15.817 15.8936C16.3546 15.4373 16.5017 14.668 16.1705 14.0454L14.5743 11.0454C14.3593 10.6415 13.9717 10.3577 13.5217 10.2748C13.0717 10.1919 12.6085 10.319 12.2637 10.6199L11.7904 11.0329C10.6523 12.0262 9.97925 13.6584 10.5371 15.3111C11.1155 17.0244 12.3497 19.721 14.8783 22.2495C17.5987 24.9699 20.362 26.0412 21.9779 26.4573C23.2799 26.7924 24.512 26.3432 25.3802 25.6358L26.2675 24.9128C26.647 24.6036 26.8517 24.1286 26.816 23.6404C26.7802 23.1521 26.5084 22.712 26.0878 22.4613L23.5703 20.9613C23.0618 20.6585 22.4228 20.6828 21.9388 21.0236Z" fill="#44B04F"/>
</svg>
